<?xml version="1.0" encoding="UTF-8" standalone="no"?>
<!-- Created with Inkscape (http://www.inkscape.org/) -->

<svg
   width="52.730438mm"
   height="8.9408064mm"
   viewBox="0 0 52.730438 8.9408064"
   version="1.1"
   id="svg1"
   inkscape:version="1.3 (0e150ed6c4, 2023-07-21)"
   sodipodi:docname="Dokemon.svg"
   xmlns:inkscape="http://www.inkscape.org/namespaces/inkscape"
   xmlns:sodipodi="http://sodipodi.sourceforge.net/DTD/sodipodi-0.dtd"
   xmlns="http://www.w3.org/2000/svg"
   xmlns:svg="http://www.w3.org/2000/svg">
  <sodipodi:namedview
     id="namedview1"
     pagecolor="#ffffff"
     bordercolor="#000000"
     borderopacity="0.25"
     inkscape:showpageshadow="2"
     inkscape:pageopacity="0.0"
     inkscape:pagecheckerboard="0"
     inkscape:deskcolor="#d1d1d1"
     inkscape:document-units="mm"
     inkscape:zoom="1"
     inkscape:cx="396.5"
     inkscape:cy="399.5"
     inkscape:window-width="1920"
     inkscape:window-height="1009"
     inkscape:window-x="-8"
     inkscape:window-y="188"
     inkscape:window-maximized="1"
     inkscape:current-layer="layer1" />
  <defs
     id="defs1" />
  <g
     inkscape:label="Layer 1"
     inkscape:groupmode="layer"
     id="layer1"
     transform="translate(-102.15583,-84.22392)">
    <g
       id="text33"
       style="font-size:12.7px;font-family:'Geometry Soft Pro';-inkscape-font-specification:'Geometry Soft Pro';fill:#ff8080;stroke-width:2"
       aria-label="Dokémon"
       inkscape:export-filename="dokemon-dark-medium.svg"
       inkscape:export-xdpi="96"
       inkscape:export-ydpi="96"
       transform="translate(-1.0583333,-49.741667)">
      <path
         style="fill:#f9f9f9"
         d="m 106.46536,142.90639 c 2.2479,0 4.064,-1.8161 4.064,-4.064 0,-2.2479 -1.8161,-4.064 -4.064,-4.064 h -2.4384 c -0.4445,0 -0.8128,0.3683 -0.8128,0.8128 v 6.5024 c 0,0.4445 0.3683,0.8128 0.8128,0.8128 z m 0,-6.5024 c 1.3462,0 2.4384,1.0922 2.4384,2.4384 0,1.3462 -1.0922,2.4384 -2.4384,2.4384 h -1.6256 v -4.8768 z m 4.4704,3.2512 c 0,1.7907 1.4605,3.2512 3.2512,3.2512 1.7907,0 3.2512,-1.4605 3.2512,-3.2512 0,-1.7907 -1.4605,-3.2512 -3.2512,-3.2512 -1.7907,0 -3.2512,1.4605 -3.2512,3.2512 z m 1.6256,0 c 0,-0.9017 0.7239,-1.6256 1.6256,-1.6256 0.9017,0 1.6256,0.7239 1.6256,1.6256 0,0.9017 -0.7239,1.6256 -1.6256,1.6256 -0.9017,0 -1.6256,-0.7239 -1.6256,-1.6256 z m 11.84911,-1.8669 c 0.1524,-0.1524 0.2413,-0.3556 0.2413,-0.5715 0,-0.4445 -0.3683,-0.8128 -0.8128,-0.8128 -0.2159,0 -0.4191,0.0889 -0.5715,0.2413 l -3.4925,3.4925 v -5.3594 c 0,-0.4445 -0.3683,-0.8128 -0.8128,-0.8128 -0.4445,0 -0.8128,0.3683 -0.8128,0.8128 v 7.3152 c 0,0.4445 0.3683,0.8128 0.8128,0.8128 0.2032,0 0.4191,-0.0762 0.5715,-0.2413 l 1.8669,-1.8669 1.8669,1.8669 c 0.1524,0.1651 0.3683,0.2413 0.5715,0.2413 0.4445,0 0.8128,-0.3683 0.8128,-0.8128 0,-0.2032 -0.0762,-0.4191 -0.2413,-0.5715 l -1.8669,-1.8669 z m 4.40691,5.1181 c 0.4445,0 0.8128,-0.3683 0.8128,-0.8128 0,-0.4445 -0.3683,-0.8128 -0.8128,-0.8128 h -0.8128 c -0.6096,0 -1.1303,-0.3175 -1.4097,-0.8128 h 3.8481 c 0.4445,0 0.8128,-0.3683 0.8128,-0.8128 0,-1.7907 -1.4605,-3.2512 -3.2512,-3.2512 -1.7907,0 -3.2512,1.4605 -3.2512,3.2512 0,1.7907 1.4605,3.2512 3.2512,3.2512 z m -0.8128,-4.8768 c 0.5969,0 1.1303,0.3302 1.4097,0.8128 h -2.8194 c 0.2794,-0.4826 0.8001,-0.8128 1.4097,-0.8128 z m 1.0414,-3.0226 c 0.1143,-0.1143 0.1778,-0.2667 0.1778,-0.4318 0,-0.3429 -0.2667,-0.6096 -0.6096,-0.6096 -0.1524,0 -0.3175,0.0635 -0.4318,0.1778 l -0.8128,0.8128 c -0.1143,0.1143 -0.1778,0.2667 -0.1778,0.4318 0,0.3429 0.2667,0.6096 0.6096,0.6096 0.1524,0 0.3175,-0.0635 0.4318,-0.1778 z m 6.985,7.0866 c 0,0.4445 0.3683,0.8128 0.8128,0.8128 0.4445,0 0.8128,-0.3683 0.8128,-0.8128 v -2.8448 c 0,-0.6731 0.5461,-1.2192 1.2192,-1.2192 0.6731,0 1.2192,0.5461 1.2192,1.2192 v 2.8448 c 0,0.4445 0.3683,0.8128 0.8128,0.8128 0.4445,0 0.8128,-0.3683 0.8128,-0.8128 v -2.8448 c 0,-1.5748 -1.27,-2.8448 -2.8448,-2.8448 -0.8001,0 -1.524,0.3302 -2.032,0.8509 -0.5207,-0.5207 -1.2319,-0.8509 -2.032,-0.8509 -0.4572,0 -0.889,0.1143 -1.27,0.3048 -0.1651,-0.2413 -0.4445,-0.4064 -0.762,-0.4064 -0.508,0 -0.9144,0.4064 -0.9144,0.9144 0,0.3175 0.1524,0.5969 0.3937,0.762 -0.1905,0.381 -0.2921,0.8128 -0.2921,1.27 v 2.8448 c 0,0.4445 0.3683,0.8128 0.8128,0.8128 0.4445,0 0.8128,-0.3683 0.8128,-0.8128 v -2.8448 c 0,-0.6731 0.5461,-1.2192 1.2192,-1.2192 0.6731,0 1.2192,0.5461 1.2192,1.2192 z"
         id="path33" />
      <path
         style="fill:#d97706"
         d="m 142.22859,139.65519 c 0,1.7907 1.4605,3.2512 3.2512,3.2512 1.7907,0 3.2512,-1.4605 3.2512,-3.2512 0,-1.7907 -1.4605,-3.2512 -3.2512,-3.2512 -1.7907,0 -3.2512,1.4605 -3.2512,3.2512 z m 1.6256,0 c 0,-0.9017 0.7239,-1.6256 1.6256,-1.6256 0.9017,0 1.6256,0.7239 1.6256,1.6256 0,0.9017 -0.7239,1.6256 -1.6256,1.6256 -0.9017,0 -1.6256,-0.7239 -1.6256,-1.6256 z"
         id="path34" />
      <path
         style="fill:#f9f9f9"
         d="m 149.3406,137.21679 c 0,0.3683 0.2159,0.6858 0.5334,0.8382 -0.2794,0.4699 -0.4318,1.016 -0.4318,1.6002 v 2.4384 c 0,0.4445 0.3683,0.8128 0.8128,0.8128 0.4445,0 0.8128,-0.3683 0.8128,-0.8128 v -2.4384 c 0,-0.9017 0.7239,-1.6256 1.6256,-1.6256 0.9017,0 1.6256,0.7239 1.6256,1.6256 v 2.4384 c 0,0.4445 0.3683,0.8128 0.8128,0.8128 0.4445,0 0.8128,-0.3683 0.8128,-0.8128 v -2.4384 c 0,-1.7907 -1.4605,-3.2512 -3.2512,-3.2512 -0.5842,0 -1.1303,0.1651 -1.6129,0.4318 -0.1397,-0.3175 -0.4572,-0.5334 -0.8255,-0.5334 -0.508,0 -0.9144,0.4064 -0.9144,0.9144 z"
         id="path35" />
    </g>
  </g>
</svg>
